<?xml version="1.0" standalone="no"?>
<!DOCTYPE svg PUBLIC "-//W3C//DTD SVG 20010904//EN"
 "http://www.w3.org/TR/2001/REC-SVG-20010904/DTD/svg10.dtd">
<svg version="1.0" xmlns="http://www.w3.org/2000/svg"
 width="2560.000000pt" height="1440.000000pt" viewBox="0 0 2560.000000 1440.000000"
 preserveAspectRatio="xMidYMid meet">

<g transform="translate(0.000000,1440.000000) scale(0.100000,-0.100000)"
fill="#000000" stroke="none">
<path d="M18171 8086 c-10 -12 -5 -16 33 -21 44 -7 65 -20 52 -32 -3 -3 -11
-1 -18 4 -7 6 -37 13 -67 15 -35 4 -57 11 -63 22 -5 9 -19 16 -31 16 -36 -1
-130 -37 -144 -55 -8 -12 -21 -16 -38 -13 -14 3 -25 1 -25 -5 0 -6 -4 -6 -12
0 -24 19 -64 23 -84 9 -10 -7 -36 -19 -56 -25 -21 -7 -47 -24 -57 -38 -11 -13
-25 -22 -31 -18 -8 5 -6 13 6 26 16 17 16 19 1 19 -10 0 -17 -7 -17 -15 0 -8
-6 -15 -12 -15 -9 0 -8 -4 2 -10 9 -6 10 -10 3 -10 -6 0 -15 -9 -18 -21 -5
-16 -10 -18 -18 -10 -9 9 -8 17 1 31 17 27 15 35 -4 19 -9 -7 -23 -14 -32 -15
-8 -2 -29 -17 -46 -35 -28 -29 -11 -23 22 9 7 6 17 12 22 12 15 0 22 -39 11
-57 -6 -10 -11 -14 -11 -9 0 11 -30 -14 -30 -26 0 -5 5 -6 10 -3 6 3 10 1 10
-5 0 -7 -6 -10 -14 -7 -8 3 -20 -1 -27 -9 -11 -13 -10 -15 2 -14 26 4 40 0 34
-10 -3 -5 -11 -7 -18 -4 -16 6 -66 -55 -102 -124 -31 -59 -27 -83 4 -31 26 42
27 21 2 -29 -10 -20 -21 -50 -25 -65 -5 -22 -11 -27 -25 -22 -15 4 -22 -3 -34
-33 -25 -61 -49 -162 -53 -222 -8 -97 -15 -139 -25 -145 -13 -8 -11 139 3 195
6 25 10 60 9 79 -1 18 10 74 24 125 24 86 37 119 72 191 14 27 14 29 0 15 -18
-17 -88 -176 -81 -183 3 -2 -4 -28 -16 -56 -11 -28 -20 -62 -20 -74 0 -13 -5
-28 -12 -35 -9 -9 -9 -12 1 -12 8 0 10 -7 6 -19 -3 -11 -8 -44 -10 -73 -10
-117 -18 -167 -26 -162 -5 3 -9 17 -9 31 0 48 -11 16 -14 -43 -6 -98 -18 -184
-25 -184 -4 0 -8 -16 -9 -36 -2 -27 0 -34 10 -28 10 6 9 3 -1 -9 -7 -9 -17
-15 -21 -12 -4 3 -11 -3 -15 -13 -6 -15 -8 -14 -20 8 l-13 24 -16 -38 c-9 -21
-14 -42 -11 -46 3 -5 1 -11 -5 -15 -5 -3 -10 -12 -10 -18 0 -7 15 5 33 26 22
26 36 34 46 28 11 -7 11 -12 0 -32 -8 -13 -14 -33 -14 -44 0 -17 -8 -20 -52
-23 -41 -2 -53 0 -53 12 0 8 6 17 13 19 7 4 8 6 1 6 -7 1 -20 -11 -30 -26 -15
-23 -18 -43 -16 -108 3 -73 2 -78 -12 -59 -8 11 -16 38 -19 60 -3 32 -4 29 -5
-17 -2 -44 3 -62 19 -83 l20 -26 -23 2 c-18 2 -23 -2 -24 -22 -4 -79 -3 -78
-24 -73 -30 8 -24 -4 10 -22 20 -11 31 -25 36 -49 3 -19 17 -44 30 -57 13 -12
24 -28 24 -36 0 -7 16 -34 35 -59 38 -49 122 -219 150 -300 9 -26 22 -59 30
-73 8 -14 24 -53 34 -86 11 -33 20 -53 21 -43 0 21 -31 115 -64 195 -30 71
-28 120 4 103 22 -12 60 -75 60 -100 0 -10 4 -21 9 -24 4 -3 16 -27 26 -53 10
-26 31 -64 46 -83 30 -39 79 -129 79 -146 0 -6 7 -18 17 -25 21 -18 124 -174
141 -216 8 -18 19 -33 25 -33 5 0 26 -12 46 -27 20 -16 41 -27 47 -25 6 1 19
-7 29 -18 21 -23 44 -28 25 -5 -19 23 -6 18 35 -15 21 -17 50 -33 64 -37 14
-3 45 -25 68 -49 24 -24 47 -44 52 -44 6 0 22 -16 37 -36 23 -30 70 -64 89
-64 3 0 5 7 5 16 0 23 22 12 41 -22 16 -27 25 -65 33 -144 2 -26 46 -151 62
-178 1 -2 14 9 30 23 22 20 25 28 15 34 -11 7 -11 14 2 37 21 37 47 130 47
165 0 35 -19 79 -35 79 -13 0 -65 52 -65 64 0 5 11 1 25 -8 36 -24 45 -20 42
20 -2 33 -8 40 -55 67 -62 35 -94 74 -71 87 9 6 25 2 46 -10 44 -26 41 -15 -8
40 l-41 45 29 3 c31 3 73 22 73 32 0 4 -11 5 -24 3 -41 -8 -59 10 -62 61 -3
43 -1 46 21 46 21 0 25 5 25 33 1 30 2 31 15 13 15 -20 35 -14 35 10 0 8 -7
28 -15 44 -9 17 -12 30 -7 30 12 0 42 -34 42 -48 0 -6 15 -22 33 -36 26 -20
36 -38 46 -81 7 -30 10 -59 7 -64 -7 -11 42 -121 54 -121 4 0 11 10 15 23 l7
22 6 -22 c7 -20 8 -19 32 14 46 64 72 93 82 93 6 0 3 -12 -7 -26 -18 -27 -13
-46 7 -26 15 15 52 16 42 1 -3 -6 -21 -17 -39 -25 -30 -12 -35 -20 -49 -83 -9
-39 -16 -92 -15 -118 l1 -48 13 48 c16 60 25 70 25 29 0 -17 5 -34 10 -37 6
-3 10 -32 10 -63 0 -36 -4 -52 -9 -43 -10 15 -22 -57 -12 -74 3 -5 7 -32 8
-59 l2 -49 -21 29 -20 29 7 -59 c9 -81 15 -94 30 -72 11 14 14 13 25 -14 15
-37 70 -114 76 -107 3 2 19 -9 35 -24 47 -43 67 -37 30 8 -17 21 -27 39 -21
41 5 2 22 -10 36 -27 14 -17 36 -36 48 -43 18 -9 18 -7 -5 18 -46 51 -50 66
-44 186 4 61 11 120 17 131 7 14 7 22 -1 27 -9 5 -9 14 -1 34 5 15 10 53 11
84 l1 57 19 -40 20 -40 -4 38 c-3 39 1 45 21 25 8 -8 12 -8 12 -1 0 6 -7 16
-15 23 -23 19 -12 22 20 6 22 -12 32 -13 43 -3 8 6 10 12 6 13 -5 1 -21 5 -36
8 -20 5 -32 17 -43 42 -16 38 -19 150 -5 194 6 22 8 23 15 8 4 -10 13 -18 21
-18 17 0 17 0 -1 44 l-15 36 47 1 c46 1 47 2 13 8 -44 9 -60 18 -60 36 0 14
26 14 68 1 45 -15 20 10 -31 29 -39 15 -56 28 -67 52 -16 35 -29 40 -60 21
-17 -11 -22 -10 -30 2 -7 11 -3 20 15 35 14 12 25 25 25 30 0 5 -5 4 -12 -3
-15 -15 -38 -16 -38 -1 0 7 8 18 18 25 15 12 15 13 1 14 -12 0 -18 11 -21 38
-3 20 -8 45 -12 55 -5 10 -4 17 3 17 6 0 11 -7 11 -15 0 -8 5 -15 10 -15 14 0
13 16 -2 40 -10 15 -10 23 -2 28 16 10 28 52 15 52 -6 0 -11 5 -11 10 0 6 6
10 13 10 9 0 12 11 9 36 -3 25 -1 35 6 30 6 -4 8 -14 5 -24 -4 -11 -3 -14 4
-7 15 15 25 63 14 70 -10 6 -51 -32 -51 -47 0 -4 -5 -8 -11 -8 -10 0 -4 108 6
119 3 2 -1 11 -8 19 -9 13 -9 14 1 8 7 -4 12 -1 12 8 0 18 25 22 35 6 3 -5 15
-10 25 -10 15 0 20 10 25 44 5 33 11 43 23 42 19 -3 41 -55 41 -98 1 -22 6
-28 24 -28 21 0 22 3 21 82 0 51 -7 104 -19 137 -22 69 -22 93 2 128 26 37 53
107 53 137 0 17 -14 32 -52 57 -29 19 -52 41 -51 49 1 8 6 40 11 70 19 102 34
245 34 315 -1 38 4 75 10 83 8 9 8 16 1 23 -6 6 -8 24 -3 44 4 19 7 35 5 37
-1 2 -5 26 -9 53 l-7 50 20 -30 c36 -57 53 -157 47 -284 -3 -65 -8 -126 -11
-137 -6 -18 -6 -18 5 0 7 10 17 75 23 145 14 183 -2 269 -84 437 -34 70 -116
197 -130 202 -5 2 -9 11 -9 21 0 23 -184 223 -221 239 -16 6 -29 16 -29 20 0
5 -11 14 -25 20 -15 7 -23 17 -19 26 4 11 -4 17 -30 21 -20 4 -34 10 -31 14 5
10 65 1 85 -11 8 -6 0 3 -18 20 -22 20 -29 31 -20 34 13 5 12 6 -101 66 -47
25 -66 30 -80 23 -10 -6 -20 -9 -22 -7 -15 13 -58 14 -68 2z m131 -91 c16 -14
38 -25 49 -25 24 0 41 -39 26 -58 -8 -10 -7 -16 2 -22 8 -4 11 -12 8 -17 -10
-17 36 -53 53 -43 8 5 24 10 35 10 18 0 18 -1 -3 -16 -27 -19 -28 -38 -2 -71
21 -28 26 -53 10 -53 -5 0 -10 6 -10 14 0 7 -11 21 -25 30 -14 9 -25 22 -25
30 0 9 -8 12 -24 9 -19 -4 -25 0 -30 21 -3 14 -11 26 -16 26 -6 0 -10 7 -10
15 0 8 -4 15 -9 15 -5 0 -12 13 -16 30 -6 26 -9 29 -36 23 -30 -6 -40 9 -16
24 8 5 2 10 -18 13 l-30 6 34 22 c24 14 30 23 20 26 -41 13 -43 14 -20 15 13
1 36 -10 53 -24z m-722 -185 c0 -5 -5 -10 -11 -10 -5 0 -7 5 -4 10 3 6 8 10
11 10 2 0 4 -4 4 -10z m-238 -372 c-7 -7 -12 -8 -12 -2 0 14 12 26 19 19 2 -3
-1 -11 -7 -17z m-27 -117 c-11 -45 -21 -79 -23 -76 -2 2 4 40 14 84 10 44 20
78 22 76 3 -2 -3 -40 -13 -84z m1030 -151 c-3 -5 -1 -10 4 -10 6 0 11 -9 11
-21 0 -12 -4 -17 -11 -13 -6 3 -10 -1 -9 -12 4 -34 0 -43 -14 -38 -22 8 -3
104 21 104 2 0 1 -4 -2 -10z m-1045 -10 c0 -5 -2 -10 -4 -10 -3 0 -8 5 -11 10
-3 6 -1 10 4 10 6 0 11 -4 11 -10z m770 -330 c6 -11 14 -19 18 -18 4 1 21 -2
39 -6 21 -5 30 -12 27 -21 -3 -8 6 -19 23 -27 28 -14 32 -27 18 -60 -5 -13 -2
-18 11 -18 24 0 118 44 151 70 31 24 46 25 68 4 11 -12 26 -15 51 -11 30 5 34
3 34 -16 -1 -33 -24 -92 -51 -127 -55 -73 -76 -90 -113 -90 -29 0 -38 -5 -46
-24 -17 -44 -81 -41 -270 15 -36 10 -71 20 -79 21 -23 5 -24 -26 -1 -55 24
-30 40 -35 40 -12 0 8 11 17 25 21 32 8 199 -48 203 -69 4 -20 -50 -57 -83
-57 -23 0 -26 -2 -15 -15 18 -22 -16 -32 -39 -11 -32 29 -46 17 -16 -14 21
-22 38 -30 64 -31 33 0 34 -1 14 -11 -13 -6 -23 -19 -23 -28 0 -26 -62 -76
-103 -84 -92 -17 -228 127 -225 238 1 57 -10 86 -31 86 -13 0 -22 13 -32 47
-24 89 -11 142 54 218 29 34 48 43 138 71 124 39 135 40 149 14z m-1060 -172
c0 -25 -12 -58 -21 -58 -10 0 -12 31 -3 54 7 19 24 21 24 4z m1885 -128 c3 -6
-1 -17 -9 -26 -15 -14 -16 -13 -16 10 0 26 13 35 25 16z m-905 -46 c0 -8 -7
-14 -15 -14 -15 0 -21 21 -9 33 10 9 24 -2 24 -19z m215 -154 c-17 -33 -30
-38 -39 -14 -4 11 1 18 14 21 11 3 20 9 20 14 0 5 5 9 10 9 6 0 4 -13 -5 -30z
m212 -67 c37 -23 63 -45 63 -55 0 -21 17 -33 23 -16 3 10 7 10 21 -1 10 -8 14
-21 10 -33 -5 -17 -1 -19 33 -16 l38 3 3 -44 c3 -44 -16 -131 -29 -131 -13 0
-19 31 -19 91 0 43 -4 59 -14 59 -9 0 -12 -8 -8 -25 2 -15 0 -25 -7 -25 -6 0
-11 6 -11 13 0 7 -8 13 -17 14 -14 1 -18 -7 -20 -35 -4 -74 -13 -101 -43 -122
l-30 -21 -9 23 c-4 13 -12 34 -16 48 -6 20 -5 23 6 13 17 -17 29 -16 29 0 0 8
-18 21 -40 30 -32 12 -40 20 -40 41 0 16 -6 26 -14 26 -17 0 -27 25 -19 47 5
12 2 15 -10 10 -9 -3 -19 -2 -23 4 -7 11 14 69 25 67 24 -3 31 6 31 37 0 20 5
35 12 35 6 0 40 -17 75 -37z m233 -158 c0 -14 5 -25 10 -25 6 0 10 5 10 11 0
5 4 8 9 5 12 -8 11 -95 -1 -102 -4 -3 -6 -9 -3 -14 3 -5 0 -22 -8 -37 l-14
-27 -13 23 c-8 17 -9 26 -1 34 15 15 14 27 -4 27 -8 0 -15 6 -16 13 -2 27 3
102 7 109 11 17 24 7 24 -17z m-990 -37 c0 -5 -4 -8 -10 -8 -5 0 -10 10 -10
23 0 18 2 19 10 7 5 -8 10 -18 10 -22z m-525 -38 c14 -27 21 -59 10 -49 -8 9
-35 79 -30 79 2 0 11 -13 20 -30z m1510 -130 c3 -5 1 -10 -4 -10 -6 0 -11 5
-11 10 0 6 2 10 4 10 3 0 8 -4 11 -10z m-1326 -99 c18 -29 30 -55 28 -58 -5
-5 -67 100 -67 112 0 12 4 6 39 -54z m876 -171 c10 -11 16 -20 13 -20 -3 0
-13 9 -23 20 -10 11 -16 20 -13 20 3 0 13 -9 23 -20z m-127 -110 c30 -40 28
-45 -8 -20 -16 12 -30 28 -30 36 0 22 14 17 38 -16z m652 -87 c0 -25 15 -31
23 -10 3 6 6 -3 6 -20 1 -21 -3 -32 -11 -30 -7 1 -13 -2 -13 -8 -1 -5 -6 -19
-10 -29 -11 -26 -12 -116 -1 -138 5 -12 4 -18 -3 -18 -6 0 -23 26 -37 57 -27
56 -27 58 -15 147 7 50 17 94 23 97 15 10 37 -19 38 -48z m-460 -368 c14 -8
21 -14 15 -14 -5 0 -21 6 -35 14 -14 8 -20 14 -15 14 6 0 21 -6 35 -14z m-76
-20 c15 -11 16 -15 5 -15 -8 0 -24 7 -35 15 -14 11 -15 14 -4 14 8 0 24 -6 34
-14z m481 -195 c-3 -5 -16 -10 -28 -9 -21 0 -21 1 -2 9 28 12 37 12 30 0z"/>
<path d="M18140 6605 c7 -9 15 -13 17 -11 7 7 -7 26 -19 26 -6 0 -6 -6 2 -15z"/>
<path d="M18239 6536 c50 -30 51 -30 51 -12 0 8 -12 17 -27 20 -16 4 -37 9
-48 12 -11 3 0 -6 24 -20z"/>
<path d="M18065 6249 c-4 -5 3 -9 14 -9 26 0 35 15 11 17 -11 1 -22 -2 -25 -8z"/>
<path d="M18491 6144 c0 -11 3 -14 6 -6 3 7 2 16 -1 19 -3 4 -6 -2 -5 -13z"/>
<path d="M17487 7868 c-56 -70 -53 -76 7 -18 31 30 56 56 56 57 0 2 -6 3 -14
3 -8 0 -30 -19 -49 -42z"/>
<path d="M17449 7853 c-13 -16 -12 -17 4 -4 9 7 17 15 17 17 0 8 -8 3 -21 -13z"/>
<path d="M17409 7803 c-13 -16 -12 -17 4 -4 9 7 17 15 17 17 0 8 -8 3 -21 -13z"/>
<path d="M7148 7404 c-2 -2 -85 -6 -183 -10 -248 -9 -264 -10 -272 -18 -4 -3
87 -4 203 0 115 4 218 6 229 6 96 -3 652 3 680 7 6 1 4 5 -4 10 -13 9 -315 7
-516 -3 -49 -2 -94 -1 -100 2 -12 8 -32 11 -37 6z"/>
<path d="M7820 7398 c0 -5 21 -8 48 -8 34 1 43 3 31 10 -18 11 -79 9 -79 -2z"/>
<path d="M7928 7398 c-9 -7 -7 -8 9 -5 13 3 25 1 28 -3 3 -5 126 -9 273 -9
147 -1 314 -3 372 -6 329 -14 429 -15 435 -5 4 7 -6 10 -27 9 -18 0 -80 2
-138 5 -323 17 -935 26 -952 14z"/>
<path d="M9065 7371 c-3 -5 -2 -12 2 -14 13 -7 73 4 73 14 0 12 -67 12 -75 0z"/>
<path d="M9155 7370 c3 -5 19 -10 36 -10 16 0 29 5 29 10 0 6 -16 10 -36 10
-21 0 -33 -4 -29 -10z"/>
<path d="M9233 7368 c-4 -7 2 -9 15 -6 12 4 22 2 22 -3 0 -4 150 -8 333 -8
182 1 353 -2 380 -6 28 -4 47 -3 47 2 0 5 7 10 15 10 8 0 15 -4 15 -8 0 -4 28
-7 63 -8 34 0 72 -3 85 -5 14 -3 22 0 22 10 0 11 -17 14 -77 15 -102 1 -192 7
-220 14 -14 3 -23 1 -23 -6 0 -8 -4 -8 -12 -2 -18 14 -656 15 -665 1z"/>
<path d="M6534 7361 c8 -12 109 -11 128 0 8 5 -16 9 -60 9 -42 0 -71 -4 -68
-9z"/>
<path d="M5957 7354 c-3 -3 -101 -6 -217 -6 -186 1 -274 -7 -258 -24 7 -7 322
-4 886 7 73 1 135 6 138 10 3 5 -115 9 -261 9 -146 0 -270 2 -274 4 -5 3 -11
3 -14 0z"/>
<path d="M10638 7354 c-5 -5 -79 -11 -150 -13 -10 -1 -18 -5 -18 -9 0 -4 38
-9 85 -11 71 -2 86 0 91 14 7 17 1 29 -8 19z"/>
<path d="M5057 7344 c-1 -1 -141 -5 -312 -9 -170 -3 -312 -8 -316 -11 -4 -2
-76 -4 -160 -5 -85 -1 -163 -5 -174 -10 -11 -4 44 -6 130 -3 83 3 294 7 470 9
176 3 364 6 417 8 102 3 147 16 62 18 -27 1 -64 2 -82 3 -18 1 -34 1 -35 0z"/>
<path d="M5245 7339 c-13 -5 2 -8 44 -8 35 -1 61 2 58 6 -11 10 -79 12 -102 2z"/>
<path d="M5360 7342 c0 -11 22 -21 58 -28 16 -3 21 -1 17 6 -4 6 -13 9 -20 6
-7 -2 -22 2 -34 10 -11 8 -21 11 -21 6z"/>
<path d="M10245 7340 c-3 -5 0 -10 9 -10 8 0 22 -3 30 -6 12 -5 15 -2 10 10
-7 18 -39 22 -49 6z"/>
<path d="M10325 7340 c-3 -5 2 -10 12 -11 10 -1 42 -3 71 -5 32 -3 51 0 47 5
-3 6 -22 9 -43 9 -20 -1 -47 2 -59 6 -12 4 -24 2 -28 -4z"/>
<path d="M2078 7323 c7 -3 16 -2 19 1 4 3 -2 6 -13 5 -11 0 -14 -3 -6 -6z"/>
<path d="M2130 7321 c0 -4 8 -7 18 -7 9 -1 51 -4 92 -8 45 -4 69 -3 60 3 -18
10 -170 21 -170 12z"/>
<path d="M5455 7320 c3 -5 8 -10 11 -10 2 0 4 5 4 10 0 6 -5 10 -11 10 -5 0
-7 -4 -4 -10z"/>
<path d="M17206 7294 c-4 -20 -5 -38 -2 -41 2 -3 8 11 12 31 3 21 4 39 1 42
-2 3 -8 -11 -11 -32z"/>
<path d="M3783 7312 c-18 -2 -33 -7 -33 -12 0 -5 64 -7 143 -5 78 2 151 4 161
5 11 0 16 3 12 7 -7 7 -222 11 -283 5z"/>
<path d="M2325 7299 c5 -7 76 -1 85 8 2 2 -17 3 -42 2 -26 -2 -45 -6 -43 -10z"/>
<path d="M2967 7303 c-2 -2 -27 -4 -55 -4 -28 -1 -50 -5 -47 -9 2 -3 131 -7
287 -7 156 -1 274 3 263 7 -11 4 -92 9 -180 10 -88 1 -184 3 -212 4 -29 2 -54
1 -56 -1z"/>
<path d="M3610 7302 c-6 -2 -8 -7 -5 -11 6 -10 107 -2 119 10 9 8 -91 8 -114
1z"/>
<path d="M3440 7291 c0 -10 137 -7 147 3 3 3 -28 6 -70 6 -42 0 -77 -4 -77 -9z"/>
<path d="M19045 5800 c3 -5 11 -10 16 -10 6 0 7 5 4 10 -3 6 -11 10 -16 10 -6
0 -7 -4 -4 -10z"/>
<path d="M18845 5769 c-4 -6 -5 -12 -2 -15 2 -3 7 2 10 11 7 17 1 20 -8 4z"/>
<path d="M17272 5600 c0 -14 2 -19 5 -12 2 6 2 18 0 25 -3 6 -5 1 -5 -13z"/>
<path d="M19093 5463 c-7 -3 -13 -11 -13 -18 0 -19 -36 -29 -95 -28 -46 2 -48
1 -20 -8 17 -6 39 -11 50 -10 16 0 17 -2 5 -9 -8 -5 -30 -10 -47 -10 -18 0
-33 -4 -33 -10 0 -25 112 5 145 40 27 28 32 61 8 53z"/>
<path d="M17770 5136 c0 -2 8 -10 18 -17 15 -13 16 -12 3 4 -13 16 -21 21 -21
13z"/>
<path d="M17792 5075 c34 -77 39 -84 54 -78 8 3 25 -3 37 -14 12 -11 29 -24
37 -28 13 -7 13 -6 0 7 -50 49 -132 121 -128 113z"/>
<path d="M17860 5046 c0 -2 8 -10 18 -17 15 -13 16 -12 3 4 -13 16 -21 21 -21
13z"/>
<path d="M18822 4915 c0 -16 2 -22 5 -12 2 9 2 23 0 30 -3 6 -5 -1 -5 -18z"/>
<path d="M18950 4932 c0 -5 9 -21 21 -35 16 -22 23 -24 34 -14 7 6 11 15 8 20
-8 13 -63 38 -63 29z"/>
<path d="M18092 4890 c0 -19 2 -27 5 -17 2 9 2 25 0 35 -3 9 -5 1 -5 -18z"/>
<path d="M17854 4895 c17 -41 18 -65 2 -96 -25 -50 -18 -119 13 -119 29 0 41
-22 41 -74 0 -28 5 -58 10 -66 8 -12 10 -10 10 8 0 23 0 23 23 -4 20 -23 26
-25 45 -15 26 14 51 4 95 -37 15 -14 27 -21 27 -15 0 6 11 8 25 5 20 -3 25 0
25 16 0 11 6 23 13 25 9 4 8 8 -3 16 -8 6 -19 12 -25 14 -6 2 -4 12 5 22 9 11
10 16 3 11 -7 -4 -13 -3 -13 2 0 5 -28 27 -63 50 -34 22 -71 51 -82 63 -13 15
-14 19 -3 11 9 -7 31 -17 50 -22 l33 -9 -35 29 c-19 17 -58 46 -86 65 -35 24
-56 47 -67 73 -8 21 -23 45 -33 53 -16 13 -17 12 -10 -6z"/>
<path d="M19010 4866 c0 -2 8 -10 18 -17 15 -13 16 -12 3 4 -13 16 -21 21 -21
13z"/>
<path d="M18360 4840 c8 -5 22 -10 30 -10 13 0 13 1 0 10 -8 5 -22 10 -30 10
-13 0 -13 -1 0 -10z"/>
<path d="M18834 4729 c3 -17 6 -52 6 -78 0 -25 4 -41 8 -35 11 18 2 144 -10
144 -6 0 -8 -12 -4 -31z"/>
<path d="M18165 3784 l7 -61 -178 -7 c-99 -3 -243 -11 -322 -17 -198 -16 -463
-8 -522 15 -65 26 -290 61 -290 46 0 -3 16 -44 35 -90 19 -47 35 -96 35 -110
0 -14 9 -40 20 -58 11 -18 25 -65 31 -105 5 -40 14 -90 20 -112 5 -22 16 -74
25 -115 8 -41 22 -87 30 -102 15 -27 44 -193 44 -249 0 -15 12 -42 28 -60 21
-26 27 -44 28 -83 0 -28 10 -78 21 -111 12 -33 25 -85 31 -116 6 -30 24 -77
41 -104 18 -29 31 -62 31 -82 0 -28 -6 -35 -39 -52 -44 -23 -47 -28 -56 -103
-7 -53 -4 -61 43 -159 51 -104 56 -126 54 -206 -2 -49 -27 -72 -89 -80 -31 -4
-42 0 -60 19 -43 46 -73 124 -93 244 -23 136 -36 180 -53 186 -7 3 -50 -1 -97
-8 -47 -8 -103 -17 -126 -20 -38 -6 -41 -4 -52 22 -23 59 -32 111 -32 180 0
38 -4 74 -9 80 -5 5 -32 72 -60 149 -29 77 -68 181 -88 230 -20 50 -40 105
-45 124 -21 74 -33 68 -73 -37 -52 -138 -85 -259 -85 -314 0 -26 -5 -71 -12
-100 l-12 -53 -6 35 -6 35 -12 -50 c-25 -107 -42 -234 -43 -325 0 -52 -4 -117
-9 -145 -5 -27 -16 -99 -24 -160 -23 -170 -55 -372 -71 -455 -8 -41 -21 -124
-30 -185 -9 -60 -29 -162 -46 -226 -16 -64 -29 -121 -29 -126 0 -17 67 -33
143 -33 42 0 78 -4 81 -9 4 -5 -1 -39 -9 -76 -9 -36 -13 -70 -10 -75 3 -5 30
-14 61 -20 47 -10 59 -9 79 4 27 18 107 21 169 6 59 -13 88 -40 100 -90 9 -36
18 -49 51 -67 57 -33 113 -28 140 12 l20 30 77 -19 c43 -10 75 -22 73 -26 -3
-5 2 -11 11 -14 28 -11 38 -6 19 8 -17 12 -13 13 31 5 27 -4 92 -19 144 -33
52 -14 107 -26 123 -26 18 0 27 -5 27 -16 0 -9 6 -14 12 -12 7 3 18 -1 25 -8
15 -15 17 -28 3 -19 -17 11 -10 -19 10 -45 l21 -25 -7 28 c-4 17 -2 27 5 27 6
0 11 -4 11 -9 0 -5 11 -12 25 -15 20 -5 25 -13 25 -39 0 -18 5 -38 11 -44 17
-17 16 -142 -1 -154 -10 -6 7 -9 50 -9 69 1 100 15 100 46 0 10 5 26 10 34 8
12 10 11 10 -7 0 -13 5 -23 10 -23 6 0 10 5 10 11 0 15 -37 159 -65 254 -13
44 -26 96 -30 115 -6 34 -5 34 15 -10 27 -57 120 -365 120 -396 l0 -24 339 0
c187 0 342 3 344 7 10 17 -6 73 -20 73 -10 0 -12 -7 -8 -22 5 -18 4 -20 -4 -8
-6 8 -11 27 -11 42 0 35 -34 56 -49 31 -13 -23 -13 -16 -2 24 5 18 6 35 1 38
-12 7 0 43 16 49 8 3 14 1 14 -4 0 -6 -5 -10 -12 -10 -9 0 -9 -3 0 -12 10 -10
15 -10 22 2 13 21 7 34 -18 38 -14 2 -19 8 -15 18 4 12 8 12 22 2 14 -12 15
-11 2 4 -10 14 -11 21 -2 32 8 10 9 16 1 21 -5 3 -10 13 -10 22 0 13 3 13 15
3 9 -8 15 -9 15 -2 0 6 -4 13 -9 16 -4 3 -6 17 -3 31 3 16 0 25 -9 25 -10 0
-10 3 -1 12 18 18 15 35 -7 41 -11 3 -22 3 -25 0 -8 -8 15 -63 27 -63 7 0 5
-5 -3 -10 -20 -13 -28 -3 -36 49 l-7 44 34 -6 c19 -3 68 -9 109 -12 41 -3 94
-8 117 -11 33 -4 42 -2 39 8 -2 7 -7 32 -10 54 l-6 41 48 6 c26 4 128 11 227
17 99 6 185 13 192 15 12 4 -18 98 -53 166 -13 26 -13 29 1 29 14 0 13 4 -1
38 -9 20 -31 73 -49 117 -18 44 -50 118 -70 165 -20 46 -59 154 -87 240 -27
85 -81 241 -118 345 -38 105 -80 233 -95 285 -15 52 -38 129 -52 170 -13 41
-40 129 -59 195 -20 66 -49 158 -65 205 -61 172 -79 242 -79 311 0 51 -6 80
-27 125 -21 47 -28 81 -33 169 -4 69 -13 121 -22 140 -32 60 -18 365 18 406
12 13 8 22 -32 70 -26 30 -48 56 -51 59 -2 3 -1 -22 2 -56z m65 -61 c0 -20
-24 -11 -28 10 -2 12 1 15 12 11 9 -3 16 -13 16 -21z m-18 -479 c-8 -15 -11
-12 -17 14 -3 17 -3 37 1 44 12 19 27 -38 16 -58z m77 -327 c1 -5 -3 -5 -9 -2
-5 3 -10 16 -9 28 0 21 1 21 9 2 5 -11 9 -24 9 -28z m-1847 -72 c-2 -14 -8
-25 -13 -25 -12 0 -11 7 1 31 14 26 18 24 12 -6z m1883 -175 c5 -52 4 -61 -5
-47 -7 11 -14 47 -17 80 -6 84 13 54 22 -33z m-2068 -507 c-3 -10 -5 -4 -5 12
0 17 2 24 5 18 2 -7 2 -21 0 -30z m1020 -35 c30 -34 35 -58 18 -84 -30 -47
-85 -22 -85 38 0 24 25 68 39 68 4 0 17 -10 28 -22z m-1030 -25 c-3 -10 -5 -4
-5 12 0 17 2 24 5 18 2 -7 2 -21 0 -30z m732 -49 c36 -45 23 -104 -21 -104
-29 0 -68 45 -68 78 0 56 53 71 89 26z m489 -456 c41 -110 42 -116 43 -248 2
-118 0 -139 -18 -170 -13 -23 -18 -47 -15 -71 2 -24 -1 -41 -12 -52 -9 -8 -16
-24 -16 -35 0 -11 -7 -25 -15 -32 -8 -7 -15 -21 -15 -31 0 -21 -16 -33 -31
-23 -8 5 -6 10 5 16 9 5 16 13 16 18 0 13 -37 13 -45 0 -4 -6 -12 -8 -18 -4
-7 3 -4 -1 7 -10 18 -15 18 -16 -8 -27 -20 -9 -23 -15 -15 -26 7 -8 8 -13 1
-13 -5 0 -15 7 -22 15 -10 12 -9 20 4 39 10 15 12 27 6 31 -6 3 -10 51 -10
106 0 56 -4 99 -10 99 -10 0 -16 -31 -24 -130 -7 -74 -17 -86 -82 -96 -55 -8
-79 0 -68 24 10 23 22 158 16 188 -8 43 -19 26 -21 -31 -1 -80 -21 -121 -61
-129 -47 -9 -88 -7 -95 4 -3 5 1 24 8 42 17 41 29 166 18 193 -6 15 -10 5 -15
-40 -8 -68 -39 -141 -67 -158 -11 -7 -19 -20 -19 -29 0 -25 -22 -22 -40 5 -11
18 -14 68 -11 277 1 140 5 265 7 276 5 19 9 21 42 13 54 -13 187 0 267 26 39
13 95 28 125 34 30 6 73 22 95 35 22 13 43 25 46 25 3 1 25 -50 47 -111z m109
-1120 c-3 -7 -5 -2 -5 12 0 14 2 19 5 13 2 -7 2 -19 0 -25z m164 -248 c-5 -19
-11 -54 -13 -78 -3 -61 -14 -61 -26 1 -8 42 -8 53 4 60 8 4 14 17 14 28 0 11
5 17 10 14 6 -4 11 8 11 27 1 27 3 28 6 8 3 -13 0 -40 -6 -60z m-203 -56 c-3
-14 -5 -12 -10 9 -3 19 -2 25 4 19 6 -6 8 -18 6 -28z"/>
<path d="M2273 1783 c-14 -5 -18 -45 -6 -56 11 -12 33 14 33 39 0 24 -4 27
-27 17z"/>
<path d="M1840 1694 c-116 -25 -110 -22 -110 -54 0 -35 -3 -35 97 -13 90 19
103 26 103 59 0 27 -1 27 -90 8z"/>
<path d="M817 1663 c-4 -3 -7 -19 -7 -35 0 -25 4 -29 23 -26 17 2 23 11 25 36
3 26 0 32 -16 32 -10 0 -22 -3 -25 -7z"/>
<path d="M969 1668 c-8 -41 -6 -67 5 -71 19 -7 33 12 32 43 -1 15 -8 26 -18
28 -10 2 -18 2 -19 0z"/>
<path d="M1225 1650 c3 -5 8 -10 11 -10 2 0 4 5 4 10 0 6 -5 10 -11 10 -5 0
-7 -4 -4 -10z"/>
<path d="M2256 1552 c-7 -12 0 -47 9 -47 5 0 12 12 16 28 5 20 4 27 -6 27 -8
0 -16 -4 -19 -8z"/>
<path d="M1825 1465 c-27 -7 -62 -16 -77 -19 -23 -5 -28 -12 -28 -36 0 -18 5
-30 13 -30 16 1 167 37 172 41 2 2 6 16 10 32 6 24 4 27 -16 26 -13 0 -46 -7
-74 -14z"/>
<path d="M809 1438 c0 -2 -3 -18 -5 -35 -4 -28 -2 -33 14 -33 21 0 32 18 32
51 0 12 -7 19 -20 19 -11 0 -20 -1 -21 -2z"/>
<path d="M957 1434 c-4 -4 -7 -20 -7 -36 0 -21 5 -28 20 -28 15 0 20 7 20 25
0 14 0 28 1 33 0 10 -25 14 -34 6z"/>
<path d="M1207 1433 c-4 -3 -7 -22 -7 -40 0 -27 4 -34 18 -31 22 4 31 78 9 78
-7 0 -17 -3 -20 -7z"/>
<path d="M1360 1407 c-10 -21 -11 -30 -2 -39 20 -20 36 5 24 39 l-9 28 -13
-28z"/>
<path d="M2250 1323 c0 -6 -3 -18 -6 -27 -4 -11 -1 -16 10 -16 9 0 16 6 16 13
0 16 -20 46 -20 30z"/>
<path d="M1825 1238 c-119 -29 -112 -26 -112 -58 0 -16 4 -30 10 -30 27 0 173
43 179 53 4 7 8 20 8 30 0 19 -22 21 -85 5z"/>
<path d="M803 1213 c-7 -2 -13 -20 -13 -39 0 -27 4 -34 20 -34 17 0 20 7 20
40 0 40 -3 43 -27 33z"/>
<path d="M940 1185 c0 -14 -1 -28 -2 -32 -2 -5 7 -9 20 -11 19 -3 22 1 22 32
0 29 -4 36 -20 36 -15 0 -20 -7 -20 -25z"/>
<path d="M1197 1203 c-3 -4 -7 -21 -8 -38 -3 -25 0 -30 16 -30 16 0 20 7 20
34 0 32 -17 52 -28 34z"/>
<path d="M1353 1202 c-6 -4 -13 -20 -14 -37 -4 -26 -1 -30 21 -30 21 0 26 5
28 31 3 32 -14 49 -35 36z"/>
<path d="M451 1144 c0 -11 3 -14 6 -6 3 7 2 16 -1 19 -3 4 -6 -2 -5 -13z"/>
<path d="M442 1062 c-2 -29 -1 -32 11 -21 16 17 17 56 2 56 -6 0 -12 -16 -13
-35z"/>
<path d="M443 1013 c9 -2 23 -2 30 0 6 3 -1 5 -18 5 -16 0 -22 -2 -12 -5z"/>
<path d="M778 954 c-4 -37 4 -49 27 -40 9 3 15 19 15 41 0 28 -4 35 -19 35
-14 0 -20 -9 -23 -36z"/>
<path d="M931 968 c-6 -17 -5 -24 6 -26 21 -5 37 13 30 32 -9 23 -26 20 -36
-6z"/>
<path d="M763 565 c0 -8 4 -15 9 -15 4 0 8 4 8 9 0 6 -4 12 -8 15 -5 3 -9 -1
-9 -9z"/>
<path d="M16930 400 c0 -5 7 -10 16 -10 8 0 12 5 9 10 -3 6 -10 10 -16 10 -5
0 -9 -4 -9 -10z"/>
<path d="M17065 380 c3 -5 16 -10 28 -9 21 0 21 1 2 9 -28 12 -37 12 -30 0z"/>
<path d="M17160 349 c0 -5 5 -7 10 -4 6 3 10 8 10 11 0 2 -4 4 -10 4 -5 0 -10
-5 -10 -11z"/>
<path d="M17240 333 c0 -15 58 -35 76 -25 14 8 12 10 -12 16 -16 4 -37 9 -46
12 -10 3 -18 2 -18 -3z"/>
<path d="M17316 286 c6 -16 34 -30 34 -18 0 10 -22 32 -32 32 -4 0 -5 -6 -2
-14z"/>
<path d="M17455 220 c3 -5 8 -10 11 -10 2 0 4 5 4 10 0 6 -5 10 -11 10 -5 0
-7 -4 -4 -10z"/>
<path d="M18385 190 c-3 -5 -1 -10 4 -10 6 0 11 5 11 10 0 6 -2 10 -4 10 -3 0
-8 -4 -11 -10z"/>
</g>
</svg>
